<!-- Generated by scripts/lang-chart.js on 2026-04-20T18:49:30.761Z -->
<svg xmlns="http://www.w3.org/2000/svg" width="640" height="240" viewBox="0 0 640 240">
<style>
    .label{font: 12px 'Segoe UI', Roboto, Arial; fill:#4c566a}
    .legend{font: 12px 'Segoe UI', Roboto, Arial; fill:#eceff4}
    .title{font: 14px 'Segoe UI', Roboto, Arial; fill:#e5e9f0; font-weight:600}
  </style>
<rect width="100%" height="100%" fill="#2e3440" rx="8"/>
<text x="20" y="26" class="title">Languages (Byte counts / repo)</text>
<g transform="translate(150, 120) rotate(-90)">
<circle r="60" cx="0" cy="0" fill="transparent" stroke="#3b4252" stroke-width="20" />
<circle r="60" cx="0" cy="0" fill="transparent" stroke="#88c0d0" stroke-width="20" stroke-linecap="butt"
      stroke-dasharray="286.43 376.99" stroke-dashoffset="0" transform="rotate(0)" />
<circle r="60" cx="0" cy="0" fill="transparent" stroke="#81a1c1" stroke-width="20" stroke-linecap="butt"
      stroke-dasharray="27.49 376.99" stroke-dashoffset="-286.43" transform="rotate(0)" />
<circle r="60" cx="0" cy="0" fill="transparent" stroke="#a3be8c" stroke-width="20" stroke-linecap="butt"
      stroke-dasharray="18.19 376.99" stroke-dashoffset="-313.92" transform="rotate(0)" />
<circle r="60" cx="0" cy="0" fill="transparent" stroke="#ebcb8b" stroke-width="20" stroke-linecap="butt"
      stroke-dasharray="14.11 376.99" stroke-dashoffset="-332.11" transform="rotate(0)" />
<circle r="60" cx="0" cy="0" fill="transparent" stroke="#bf616a" stroke-width="20" stroke-linecap="butt"
      stroke-dasharray="12.55 376.99" stroke-dashoffset="-346.23" transform="rotate(0)" />
<circle r="60" cx="0" cy="0" fill="transparent" stroke="#b48ead" stroke-width="20" stroke-linecap="butt"
      stroke-dasharray="4.37 376.99" stroke-dashoffset="-358.77" transform="rotate(0)" />
<circle r="60" cx="0" cy="0" fill="transparent" stroke="#d08770" stroke-width="20" stroke-linecap="butt"
      stroke-dasharray="3.09 376.99" stroke-dashoffset="-363.14" transform="rotate(0)" />
<circle r="60" cx="0" cy="0" fill="transparent" stroke="#5e81ac" stroke-width="20" stroke-linecap="butt"
      stroke-dasharray="2.98 376.99" stroke-dashoffset="-366.23" transform="rotate(0)" />
<circle r="60" cx="0" cy="0" fill="transparent" stroke="#8fbcbb" stroke-width="20" stroke-linecap="butt"
      stroke-dasharray="2.10 376.99" stroke-dashoffset="-369.21" transform="rotate(0)" />
<circle r="60" cx="0" cy="0" fill="transparent" stroke="#4c566a" stroke-width="20" stroke-linecap="butt"
      stroke-dasharray="1.31 376.99" stroke-dashoffset="-371.31" transform="rotate(0)" />
</g>
<g transform="translate(330,40)">
<rect x="0" y="-12" width="12" height="12" fill="#88c0d0" rx="2"/>
<text x="18" y="-2" class="legend">TeX — 76.0% (2.9 MB)</text>
<rect x="0" y="8" width="12" height="12" fill="#81a1c1" rx="2"/>
<text x="18" y="18" class="legend">C — 7.3% (289.6 KB)</text>
<rect x="0" y="28" width="12" height="12" fill="#a3be8c" rx="2"/>
<text x="18" y="38" class="legend">HTML — 4.8% (191.6 KB)</text>
<rect x="0" y="48" width="12" height="12" fill="#ebcb8b" rx="2"/>
<text x="18" y="58" class="legend">Python — 3.7% (148.7 KB)</text>
<rect x="0" y="68" width="12" height="12" fill="#bf616a" rx="2"/>
<text x="18" y="78" class="legend">Java — 3.3% (132.2 KB)</text>
<rect x="0" y="88" width="12" height="12" fill="#b48ead" rx="2"/>
<text x="18" y="98" class="legend">MATLAB — 1.2% (46.0 KB)</text>
<rect x="0" y="108" width="12" height="12" fill="#d08770" rx="2"/>
<text x="18" y="118" class="legend">C++ — 0.8% (32.5 KB)</text>
<rect x="0" y="128" width="12" height="12" fill="#5e81ac" rx="2"/>
<text x="18" y="138" class="legend">BibTeX Style — 0.8% (31.4 KB)</text>
<rect x="0" y="148" width="12" height="12" fill="#8fbcbb" rx="2"/>
<text x="18" y="158" class="legend">Assembly — 0.6% (22.1 KB)</text>
<rect x="0" y="168" width="12" height="12" fill="#4c566a" rx="2"/>
<text x="18" y="178" class="legend">Makefile — 0.3% (13.7 KB)</text>
</g>
<text x="20" y="216" class="label">Total: 3.9 MB — Generated: 2026-04-20</text>
</svg>