<!-- Generated by scripts/lang-chart.js on 2026-06-20T19:06:27.528Z -->
<svg xmlns="http://www.w3.org/2000/svg" width="640" height="240" viewBox="0 0 640 240">
<style>
    .label{font: 12px 'Segoe UI', Roboto, Arial; fill:#4c566a}
    .legend{font: 12px 'Segoe UI', Roboto, Arial; fill:#eceff4}
    .title{font: 14px 'Segoe UI', Roboto, Arial; fill:#e5e9f0; font-weight:600}
  </style>
<rect width="100%" height="100%" fill="#2e3440" rx="8"/>
<text x="20" y="26" class="title">Languages (Byte counts / repo)</text>
<g transform="translate(150, 120) rotate(-90)">
<circle r="60" cx="0" cy="0" fill="transparent" stroke="#3b4252" stroke-width="20" />
<circle r="60" cx="0" cy="0" fill="transparent" stroke="#88c0d0" stroke-width="20" stroke-linecap="butt"
      stroke-dasharray="259.82 376.99" stroke-dashoffset="0" transform="rotate(0)" />
<circle r="60" cx="0" cy="0" fill="transparent" stroke="#81a1c1" stroke-width="20" stroke-linecap="butt"
      stroke-dasharray="29.23 376.99" stroke-dashoffset="-259.82" transform="rotate(0)" />
<circle r="60" cx="0" cy="0" fill="transparent" stroke="#a3be8c" stroke-width="20" stroke-linecap="butt"
      stroke-dasharray="16.53 376.99" stroke-dashoffset="-289.05" transform="rotate(0)" />
<circle r="60" cx="0" cy="0" fill="transparent" stroke="#ebcb8b" stroke-width="20" stroke-linecap="butt"
      stroke-dasharray="16.39 376.99" stroke-dashoffset="-305.59" transform="rotate(0)" />
<circle r="60" cx="0" cy="0" fill="transparent" stroke="#bf616a" stroke-width="20" stroke-linecap="butt"
      stroke-dasharray="11.38 376.99" stroke-dashoffset="-321.98" transform="rotate(0)" />
<circle r="60" cx="0" cy="0" fill="transparent" stroke="#b48ead" stroke-width="20" stroke-linecap="butt"
      stroke-dasharray="8.92 376.99" stroke-dashoffset="-333.36" transform="rotate(0)" />
<circle r="60" cx="0" cy="0" fill="transparent" stroke="#d08770" stroke-width="20" stroke-linecap="butt"
      stroke-dasharray="8.26 376.99" stroke-dashoffset="-342.28" transform="rotate(0)" />
<circle r="60" cx="0" cy="0" fill="transparent" stroke="#5e81ac" stroke-width="20" stroke-linecap="butt"
      stroke-dasharray="8.14 376.99" stroke-dashoffset="-350.54" transform="rotate(0)" />
<circle r="60" cx="0" cy="0" fill="transparent" stroke="#8fbcbb" stroke-width="20" stroke-linecap="butt"
      stroke-dasharray="3.96 376.99" stroke-dashoffset="-358.68" transform="rotate(0)" />
<circle r="60" cx="0" cy="0" fill="transparent" stroke="#4c566a" stroke-width="20" stroke-linecap="butt"
      stroke-dasharray="3.35 376.99" stroke-dashoffset="-362.64" transform="rotate(0)" />
</g>
<g transform="translate(330,40)">
<rect x="0" y="-12" width="12" height="12" fill="#88c0d0" rx="2"/>
<text x="18" y="-2" class="legend">TeX — 68.9% (2.9 MB)</text>
<rect x="0" y="8" width="12" height="12" fill="#81a1c1" rx="2"/>
<text x="18" y="18" class="legend">C — 7.8% (339.4 KB)</text>
<rect x="0" y="28" width="12" height="12" fill="#a3be8c" rx="2"/>
<text x="18" y="38" class="legend">HTML — 4.4% (192.0 KB)</text>
<rect x="0" y="48" width="12" height="12" fill="#ebcb8b" rx="2"/>
<text x="18" y="58" class="legend">Python — 4.3% (190.4 KB)</text>
<rect x="0" y="68" width="12" height="12" fill="#bf616a" rx="2"/>
<text x="18" y="78" class="legend">Java — 3.0% (132.2 KB)</text>
<rect x="0" y="88" width="12" height="12" fill="#b48ead" rx="2"/>
<text x="18" y="98" class="legend">Haskell — 2.4% (103.6 KB)</text>
<rect x="0" y="108" width="12" height="12" fill="#d08770" rx="2"/>
<text x="18" y="118" class="legend">Racket — 2.2% (95.9 KB)</text>
<rect x="0" y="128" width="12" height="12" fill="#5e81ac" rx="2"/>
<text x="18" y="138" class="legend">C++ — 2.2% (94.5 KB)</text>
<rect x="0" y="148" width="12" height="12" fill="#8fbcbb" rx="2"/>
<text x="18" y="158" class="legend">MATLAB — 1.1% (46.0 KB)</text>
<rect x="0" y="168" width="12" height="12" fill="#4c566a" rx="2"/>
<text x="18" y="178" class="legend">TypeScript — 0.9% (38.9 KB)</text>
</g>
<text x="20" y="216" class="label">Total: 4.3 MB — Generated: 2026-06-20</text>
</svg>